<svg width="22" height="22" viewBox="0 0 22 22" fill="none" xmlns="http://www.w3.org/2000/svg">
<path d="M6.07589 18.5105L6.4085 18.7068C7.80608 19.5325 9.40839 19.9692 11.0424 19.9701H11.0459C16.0641 19.9701 20.1483 15.905 20.1501 10.9089C20.1509 8.48759 19.2049 6.21111 17.486 4.49827C15.7669 2.78575 13.4814 1.84197 11.0492 1.84097C6.02726 1.84097 1.94309 5.90538 1.9412 10.9015C1.94054 12.6135 2.42161 14.281 3.3331 15.7235L3.54975 16.0663L2.62979 19.41L6.07589 18.5105ZM0 22L1.55397 16.351C0.595464 14.6977 0.0912191 12.8222 0.0920085 10.901C0.094345 4.89018 5.00785 0 11.0462 0C13.9762 0.00125736 16.7264 1.13653 18.7946 3.19715C20.8625 5.25774 22.001 7.9968 22 10.9098C21.9974 16.9203 17.0829 21.8114 11.0462 21.8114H11.0415C9.20827 21.8108 7.40694 21.353 5.80706 20.4843L0 22Z" fill="#5ECD77"/>
<path fill-rule="evenodd" clip-rule="evenodd" d="M8.30809 6.34582C8.10303 5.89204 7.88727 5.88296 7.69223 5.87497C7.53261 5.86822 7.35006 5.86866 7.16771 5.86866C6.98515 5.86866 6.68863 5.93685 6.4379 6.20953C6.18694 6.48221 5.47986 7.14135 5.47986 8.48192C5.47986 9.82261 6.46076 11.118 6.59741 11.3C6.73431 11.4816 8.49091 14.3207 11.2727 15.4128C13.5847 16.3205 14.0552 16.14 14.557 16.0945C15.0589 16.0491 16.1764 15.4356 16.4044 14.7993C16.6325 14.1631 16.6325 13.6177 16.5641 13.5038C16.4957 13.3903 16.3132 13.3221 16.0395 13.1859C15.7657 13.0496 14.4201 12.3904 14.1693 12.2994C13.9183 12.2086 13.7359 12.1633 13.5533 12.4361C13.3709 12.7085 12.8467 13.3221 12.6869 13.5038C12.5273 13.6859 12.3676 13.7087 12.0939 13.5724C11.8201 13.4356 10.9386 13.1482 9.89287 12.2201C9.0792 11.4978 8.52993 10.6059 8.37019 10.3331C8.21057 10.0606 8.35315 9.91305 8.49038 9.7772C8.61335 9.6551 8.76417 9.45905 8.90107 9.30003C9.03763 9.1409 9.08319 9.02735 9.17442 8.84559C9.26576 8.66372 9.22009 8.50459 9.15169 8.36829C9.08319 8.23201 8.55147 6.88463 8.30809 6.34582Z" fill="#5ECD77"/>
</svg>

