<?xml version="1.0" encoding="utf-8"?>
<!-- Generator: Avocode 2.4.3-3630f5a - http://avocode.com -->
<svg height="27" width="21" xmlns:xlink="http://www.w3.org/1999/xlink" xmlns="http://www.w3.org/2000/svg"
     viewBox="0 0 21 27">
  <path stroke-linejoin="miter" stroke-linecap="butt" stroke-width="1" stroke="#b2b2b2" fill="#ffffff"
        fill-rule="evenodd"
        d="M 21 6.07 L 21 24.99 C 21 26.1 20.1 27 19.01 27 L 1.99 27 C 0.89 27 0 26.1 0 24.99 L 0 2.01 C 0 0.9 0.9 0 2 0 L 15.1 0"/>
  <path fill="#b2b2b2" fill-rule="evenodd"
        d="M 6 20 L 7 20 L 7 21 L 6 21 L 6 23 L 5 23 L 5 19 L 6 19 L 6 20 L 6 20 Z M 5 18 L 7 18 L 7 19 L 5 19 L 5 18 L 5 18 Z M 7 18 L 8 19 L 8 20.02 L 7 21 L 7 18 L 7 18 Z M 7 18"/>
  <path fill="#b2b2b2" fill-rule="evenodd"
        d="M 14 20 L 14 19 L 13 19 L 13 23 L 14 23 L 14 21 L 16 21 L 16 20 L 14 20 L 14 20 Z M 13 18 L 16 18 L 16 19 L 13 19 L 13 18 L 13 18 Z M 13 18"/>
  <path fill="#b2b2b2" fill-rule="evenodd"
        d="M 9 18 L 10 18 L 10 23 L 9 23 L 9 18 L 9 18 Z M 11 18 L 12 19 L 12 22 L 11 23 L 11 18 L 11 18 Z M 10 18 L 11 18 L 11 19 L 10 19 L 10 18 L 10 18 Z M 10 22 L 11 22 L 11 23 L 10 23 L 10 22 L 10 22 Z M 10 22"/>
  <path fill="#b2b2b2" fill-rule="evenodd" d="M 15 0 L 21 6 L 15.99 6 C 15.44 6 15 5.55 15 5.01 L 15 0 Z M 15 0"/>
  <path fill="#d8d8d8" fill-rule="evenodd"
        d="M 4 8 L 17 8 L 17 9 L 4 9 L 4 8 Z M 4 10 L 17 10 L 17 11 L 4 11 L 4 10 Z M 4 12 L 17 12 L 17 13 L 4 13 L 4 12 Z M 4 14 L 13 14 L 13 15 L 4 15 L 4 14 Z M 4 14"/>
</svg>
