<?xml version="1.0" encoding="utf-8"?>
<!-- Generator: Avocode 2.4.3-3630f5a - http://avocode.com -->
<svg height="27" width="23" xmlns:xlink="http://www.w3.org/1999/xlink" xmlns="http://www.w3.org/2000/svg"
     viewBox="0 0 23 27">
  <path stroke-linejoin="miter" stroke-linecap="butt" stroke-width="1" stroke="#b2b2b2" fill="#ffffff"
        fill-rule="evenodd"
        d="M 21 10.03 L 21 24.99 C 21 26.1 20.1 27 19.01 27 L 1.99 27 C 0.89 27 0 26.1 0 24.99 L 0 2.01 C 0 0.9 0.9 0 2 0 L 19 0 C 20.11 0 21 0.89 21 2.01 L 21 4.02 L 21 4.02"/>
  <path fill="#f9f9f9" fill-rule="evenodd"
        d="M 1 10 L 20 10 L 20 24.01 C 20 25.11 19.11 26 18 26 L 3 26 C 1.89 26 1 25.11 1 24.01 L 1 10 Z M 1 10"/>
  <path fill="#f9f9f9" fill-rule="evenodd"
        d="M 1 2.5 C 1 1.67 1.68 1 2.49 1 L 18.51 1 C 19.33 1 20 1.67 20 2.5 L 20 4 L 1 4 L 1 2.5 Z M 1 2.5"/>
  <path fill="#b2b2b2" fill-rule="evenodd"
        d="M 6 5 L 8 5 L 8 7 L 6 7 L 6 5 L 6 5 Z M 8 7 L 10 7 L 10 9 L 8 9 L 8 7 L 8 7 Z M 10 5 L 12 5 L 12 7 L 10 7 L 10 5 L 10 5 Z M 12 7 L 14 7 L 14 9 L 12 9 L 12 7 L 12 7 Z M 14 5 L 16 5 L 16 7 L 14 7 L 14 5 L 14 5 Z M 4 7 L 6 7 L 6 9 L 4 9 L 4 7 L 4 7 Z M 1 7 L 2 7 L 2 9 L 1 9 L 1 7 L 1 7 Z M 2 5 L 4 5 L 4 7 L 2 7 L 2 5 Z M 2 5"/>
  <path fill="#b2b2b2" fill-rule="evenodd"
        d="M 17 5 L 23 5 L 23 9 L 17 9 L 17 5 Z M 17 6 L 18 6 L 18 8 L 17 8 L 17 6 Z M 20 6 L 22 6 L 22 8 L 20 8 L 20 6 Z M 20 6"/>
  <path fill="#b2b2b2" fill-rule="evenodd"
        d="M 4 17 L 11 17 L 11 18 L 4 18 L 4 17 Z M 4 15 L 17 15 L 17 16 L 4 16 L 4 15 Z M 4 15"/>
</svg>
