<?xml version="1.0" encoding="utf-8"?>
<!-- Generator: Avocode 2.4.3-3630f5a - http://avocode.com -->
<svg height="27" width="21" xmlns:xlink="http://www.w3.org/1999/xlink" xmlns="http://www.w3.org/2000/svg"
     viewBox="0 0 21 27">
  <path stroke-linejoin="miter" stroke-linecap="butt" stroke-width="1" stroke="#b2b2b2" fill="#ffffff"
        fill-rule="evenodd"
        d="M 21 6.07 L 21 24.99 C 21 26.1 20.1 27 19.01 27 L 1.99 27 C 0.89 27 0 26.1 0 24.99 L 0 2.01 C 0 0.9 0.9 0 2 0 L 15.1 0"/>
  <path fill="#b2b2b2" fill-rule="evenodd" d="M 15 0 L 21 6 L 15.99 6 C 15.44 6 15 5.55 15 5.01 L 15 0 Z M 15 0"/>
  <path fill="#d8d8d8" fill-rule="evenodd"
        d="M 8 8 L 17 8 L 17 9 L 8 9 L 8 8 Z M 8 10 L 17 10 L 17 11 L 8 11 L 8 10 Z M 4 8 L 7 8 L 7 11 L 4 11 L 4 8 Z M 4 12 L 17 12 L 17 13 L 4 13 L 4 12 Z M 4 14 L 17 14 L 17 15 L 4 15 L 4 14 Z M 4 14"/>
  <path fill="#b2b2b2" fill-rule="evenodd"
        d="M 6.45 22 L 6.9 22 L 7.97 22 L 7 22.49 L 7 23 L 6 23 L 6 22 L 6.45 22 Z M 5 22 L 6 22 L 6 23 L 5 23 L 5 22 Z M 5 21 L 6 21 L 6 22 L 5 22 L 5 21 Z M 5 20 L 6 20 L 6 21 L 5 21 L 5 20 Z M 5 19 L 6 19 L 6 20 L 5 20 L 5 19 Z M 5 18 L 6 18 L 6 19 L 5 19 L 5 18 Z M 6 18 L 6.9 18 L 8 19 L 6 19 L 6 18 Z M 7 19 L 8 19 L 8 20 L 7 20 L 7 19 Z M 7 21 L 8 21 L 8 22 L 7 22 L 7 21 Z M 7 20 L 8 20 L 8 21 L 7 21 L 7 20 Z M 7 20"/>
  <path fill="#b2b2b2" fill-rule="evenodd"
        d="M 9 19 L 10 19 L 10 20 L 9 20 L 9 19 Z M 10 18 L 11 18 L 11 19 L 10 19 L 10 18 Z M 9.5 18.5 L 10 18 L 10 19 L 9 19 L 9.5 18.5 Z M 11 18 L 11.5 18.5 L 12 19 L 11 19 L 11 18 Z M 9 22 L 10 22 L 10 23 L 9.5 22.5 L 9 22 Z M 11 22 L 12 22 L 11.5 22.5 L 11 23 L 11 22 Z M 11 19 L 12 19 L 12 20 L 11 20 L 11 19 Z M 11 20 L 12 20 L 12 21 L 11 21 L 11 20 Z M 11 21 L 12 21 L 12 22 L 11 22 L 11 21 Z M 9 20 L 10 20 L 10 21 L 9 21 L 9 20 Z M 9 21 L 10 21 L 10 22 L 9 22 L 9 21 Z M 10 22 L 11 22 L 11 23 L 10 23 L 10 22 Z M 10 22"/>
  <path fill="#b2b2b2" fill-rule="evenodd"
        d="M 13 19 L 14 19 L 14 20 L 13 20 L 13 19 Z M 14 18 L 15 18 L 15 19 L 14 19 L 14 18 Z M 15 19 L 16 19 L 16 20 L 15 20 L 15 19 Z M 13 20 L 14 20 L 14 21 L 13 21 L 13 20 Z M 13 21 L 14 21 L 14 22 L 13 22 L 13 21 Z M 14 22 L 15 22 L 15 23 L 14 23 L 14 22 Z M 15 21 L 16 21 L 16 22 L 15 22 L 15 21 Z M 13.5 18.5 L 14 18 L 14 19 L 13 19 L 13.5 18.5 Z M 15 18 L 15.5 18.5 L 16 19 L 15 19 L 15 18 Z M 15 22 L 16 22 L 15.5 22.5 L 15 23 L 15 22 Z M 13 22 L 14 22 L 14 23 L 13.5 22.5 L 13 22 Z M 13 22"/>
</svg>
