<?xml version="1.0" encoding="utf-8"?>
<!-- Generator: Avocode 2.4.3-3630f5a - http://avocode.com -->
<svg height="27" width="21" xmlns:xlink="http://www.w3.org/1999/xlink" xmlns="http://www.w3.org/2000/svg"
     viewBox="0 0 21 27">
  <path stroke-linejoin="miter" stroke-linecap="butt" stroke-width="1" stroke="#b2b2b2" fill="#ffffff"
        fill-rule="evenodd"
        d="M 0 2.01 C 0 0.9 0.9 0 1.99 0 L 19.01 0 C 20.11 0 21 0.9 21 2.01 L 21 24.99 C 21 26.1 20.1 27 19.01 27 L 1.99 27 C 0.89 27 0 26.1 0 24.99 L 0 2.01 Z M 0 2.01"/>
  <path fill="#f9f9f9" fill-rule="evenodd"
        d="M 1 3.01 C 1 1.9 1.89 1 3 1 L 18 1 C 19.11 1 20 1.9 20 3.01 L 20 15 L 1 15 L 1 3.01 Z M 1 3.01"/>
  <path fill="#d1d1d1" fill-rule="evenodd"
        d="M 5.91 7.18 C 6.41 6.19 7.31 6.13 7.93 7.05 L 12.02 13.06 L 14.39 10.35 C 14.75 9.93 15.3 9.95 15.64 10.4 L 19 15 L 2 15 L 5.91 7.18 Z M 5.91 7.18"/>
  <path fill="#d1d1d1" fill-rule="evenodd"
        d="M 13.5 7 C 14.33 7 15 6.33 15 5.5 C 15 4.67 14.33 4 13.5 4 C 12.67 4 12 4.67 12 5.5 C 12 6.33 12.67 7 13.5 7 Z M 13.5 7"/>
  <path fill="#b2b2b2" fill-rule="evenodd"
        d="M 4 19 L 17 19 L 17 20 L 4 20 L 4 19 Z M 4 21 L 14 21 L 14 22 L 4 22 L 4 21 Z M 4 21"/>
</svg>
