<?xml version="1.0" encoding="utf-8"?>
<!-- Generator: Avocode 2.4.3-3630f5a - http://avocode.com -->
<svg height="27" width="21" xmlns:xlink="http://www.w3.org/1999/xlink" xmlns="http://www.w3.org/2000/svg"
     viewBox="0 0 21 27">
  <path stroke-linejoin="miter" stroke-linecap="butt" stroke-width="1" stroke="#b2b2b2" fill="#ffffff"
        fill-rule="evenodd"
        d="M 0 2.01 C 0 0.9 0.9 0 1.99 0 L 19.01 0 C 20.11 0 21 0.9 21 2.01 L 21 24.99 C 21 26.1 20.1 27 19.01 27 L 1.99 27 C 0.89 27 0 26.1 0 24.99 L 0 2.01 Z M 0 2.01"/>
  <path fill="#d1d1d1" fill-rule="evenodd"
        d="M 5.91 7.18 C 6.41 6.19 7.31 6.13 7.93 7.05 L 12.02 13.06 L 14.39 10.35 C 14.75 9.93 15.3 9.95 15.64 10.4 L 19 15 L 2 15 L 5.91 7.18 Z M 5.91 7.18"/>
  <path fill="#d1d1d1" fill-rule="evenodd"
        d="M 13.5 7 C 14.33 7 15 6.33 15 5.5 C 15 4.67 14.33 4 13.5 4 C 12.67 4 12 4.67 12 5.5 C 12 6.33 12.67 7 13.5 7 Z M 13.5 7"/>
  <path fill="#b2b2b2" fill-rule="evenodd"
        d="M 5 21 L 6 21 L 6 22 L 5 22 L 5 21 Z M 5 20 L 6 20 L 6 21 L 5 21 L 5 20 Z M 5 19 L 6 19 L 6 20 L 5 20 L 5 19 Z M 6 18 L 7 18 L 7 19 L 6 19 L 6 18 Z M 6 22 L 7 22 L 7 23 L 6 23 L 6 22 Z M 7 22 L 8 22 L 8 23 L 7 23 L 7 22 Z M 8 21 L 9 21 L 9 22 L 8 22 L 8 21 Z M 7 18 L 8 18 L 8 19 L 7 19 L 7 18 Z M 8 20 L 9 20 L 9 21 L 8 21 L 8 20 Z M 7 20 L 8 20 L 8 21 L 7 21 L 7 20 Z M 8 22 L 9 22 L 8.5 22.5 L 8 23 L 8 22 Z M 5 22 L 6 22 L 6 23 L 5.5 22.5 L 5 22 Z M 5.5 18.5 L 6 18 L 6 19 L 5 19 L 5.5 18.5 Z M 5.5 18.5"/>
  <path fill="#b2b2b2" fill-rule="evenodd" d="M 10 18 L 11 18 L 11 23 L 10 23 L 10 18 Z M 10 18"/>
  <path fill="#b2b2b2" fill-rule="evenodd"
        d="M 12 22 L 13 22 L 13 23 L 12 23 L 12 22 Z M 12 21 L 13 21 L 13 22 L 12 22 L 12 21 Z M 12 20 L 13 20 L 13 21 L 12 21 L 12 20 Z M 12 19 L 13 19 L 13 20 L 12 20 L 12 19 Z M 12 18 L 13 18 L 13 19 L 12 19 L 12 18 Z M 13 18 L 14 18 L 14 19 L 13 19 L 13 18 Z M 14 18 L 15 18 L 15 19 L 14 19 L 14 18 Z M 13 20 L 14 20 L 14 21 L 13 21 L 13 20 Z M 14 20 L 15 20 L 15 21 L 14 21 L 14 20 Z M 14 20"/>
</svg>
