<svg width="34" height="36" viewBox="0 0 34 36" xmlns="http://www.w3.org/2000/svg"><title>mail-post-icon</title><path d="M11 14H4v16.999A1 1 0 0 0 5 32h24c.55 0 1-.45 1-1.001V14h-7v5a2 2 0 0 1-2 2h-8a2 2 0 0 1-2-2v-5zm11.64-4h6.406l-2.16-5.4c-.106-.265-.598-.6-.877-.6h-4.57l1.2 6zm-11.28 0l1.2-6H7.991c-.281 0-.77.332-.877.6L4.954 10h6.406zm4.08 0h3.12l-1.2-6h-.72l-1.2 6zM19 14h-4v3h4v-3zm14.84-2.785a1.976 1.976 0 0 1 .16.875v18.909A5.003 5.003 0 0 1 29 36H5a5 5 0 0 1-5-5.001v-18.91a1.976 1.976 0 0 1 .16-.874l3.24-8.1C4.114 1.33 6.071 0 7.991 0H26.01c1.918 0 3.878 1.334 4.59 3.115l3.241 8.1z" fill-rule="nonzero" fill="#C5C5C5"/></svg>