<svg width="40" height="48" viewBox="0 0 40 48" xmlns="http://www.w3.org/2000/svg"><title>other-delivery-icon</title><path d="M20.206 34l3.85-13.478A2.347 2.347 0 0 1 24 20a4 4 0 1 0-8 0c0 .187-.02.361-.056.522L19.794 34h.412zm4.332-.603l11.41-14.043A4.001 4.001 0 0 0 28 20c0 .188-.02.363-.057.525.08.326.08.678-.02 1.024l-3.385 11.848zm-9.076 0l-3.385-11.848a1.99 1.99 0 0 1-.02-1.024A2.345 2.345 0 0 1 12 20a4 4 0 0 0-7.948-.646l11.41 14.043zM27 36.71V46a2 2 0 0 1-2 2H15a2 2 0 0 1-2-2v-9.29L.68 21.547C.275 21.214 0 20.699 0 20 0 8.954 8.954 0 20 0s20 8.954 20 20c0 .699-.275 1.214-.68 1.547L27 36.71zM17 44h6v-6h-6v6zM6.003 12.242A8.45 8.45 0 0 1 8 12a7.98 7.98 0 0 1 6 2.708A7.98 7.98 0 0 1 20 12a7.98 7.98 0 0 1 6 2.708A7.98 7.98 0 0 1 32 12c.692 0 1.363.088 2.003.253C31.273 7.33 26.026 4 20 4 13.978 4 8.734 7.326 6.003 12.242z" fill-rule="nonzero" fill="#15C"/></svg>