<svg width="50" height="32" viewBox="0 0 50 32" xmlns="http://www.w3.org/2000/svg"><title>posts-icon</title><path d="M12.693 9.363a13.481 13.481 0 0 1 3.432-5.404c5.461-5.279 14.289-5.279 19.75 0 2.37 2.29 3.718 5.197 4.046 8.19a8.41 8.41 0 0 1 7.603 2.392c3.301 3.366 3.301 8.807 0 12.173L42.928 31.4a2 2 0 0 1-2.856 0l-4.596-4.686a8.626 8.626 0 0 1-1.348-1.788l-6.738 6.512a2 2 0 0 1-2.78 0l-6.723-6.498c-.253.32-.53.627-.828.92l-5.656 5.566a2 2 0 0 1-2.806 0L2.941 25.86a9.78 9.78 0 0 1 0-13.982c2.643-2.6 6.394-3.44 9.752-2.516zm-.69 3.972c-2.116-.731-4.568-.266-6.257 1.396a5.78 5.78 0 0 0 0 8.278L10 27.194l4.254-4.185c.3-.295.562-.614.785-.95a13.311 13.311 0 0 1-3.036-8.724zm25.149 8.487a4.638 4.638 0 0 0 1.18 2.091l3.168 3.23 3.168-3.23c1.776-1.81 1.776-4.761 0-6.571a4.41 4.41 0 0 0-4.963-.96 13.337 13.337 0 0 1-2.553 5.44zm-4.057-1.461c3.873-3.743 3.873-9.783 0-13.526-3.91-3.78-10.28-3.78-14.19 0-3.873 3.743-3.873 9.783 0 13.526L26 27.219l7.095-6.858zM26 18a4 4 0 1 1 0-8 4 4 0 0 1 0 8zm-16 3a2 2 0 1 1 0-4 2 2 0 0 1 0 4zm31.5 1a1.5 1.5 0 1 1 0-3 1.5 1.5 0 0 1 0 3z" fill-rule="nonzero" fill="#15C"/></svg>