<svg width="12" height="15" viewBox="0 0 12 15" fill="none" xmlns="http://www.w3.org/2000/svg">
<path d="M7.96963 13.6932H4.09382C3.70624 13.6932 3.44786 13.9421 3.44786 14.3156C3.44786 14.689 3.70624 14.938 4.09382 14.938H7.96963C8.35721 14.938 8.6156 14.689 8.6156 14.3156C8.6156 13.9421 8.29262 13.6932 7.96963 13.6932Z" fill="#666666"/>
<path d="M11.6517 10.1454L11.2641 9.58523C10.7473 8.90057 10.4889 8.02918 10.4889 7.1578V5.60176C10.4889 3.4233 8.80939 1.61829 6.6131 1.30708V0.622417C6.6131 0.248967 6.35471 0 5.96713 0C5.57955 0 5.32116 0.248967 5.32116 0.622417V1.30708C3.12487 1.61829 1.44535 3.4233 1.44535 5.60176V7.22004C1.44535 8.09143 1.18697 8.90057 0.670192 9.64747L0.282611 10.2076C-0.492551 11.3902 0.411805 13.0708 1.96213 13.0708H10.0367C11.5871 13.0708 12.556 11.3902 11.6517 10.1454Z" fill="#666666"/>
</svg>