<svg width="17" height="22" viewBox="0 0 17 22" fill="none" xmlns="http://www.w3.org/2000/svg">
<path d="M11.2723 20.1667H5.77227C5.22227 20.1667 4.8556 20.5333 4.8556 21.0833C4.8556 21.6333 5.22227 22 5.77227 22H11.2723C11.8223 22 12.1889 21.6333 12.1889 21.0833C12.1889 20.5333 11.7306 20.1667 11.2723 20.1667Z" fill="#666666"/>
<path d="M16.4973 14.9417L15.9473 14.1167C15.2139 13.1083 14.8473 11.825 14.8473 10.5417V8.25C14.8473 5.04167 12.4639 2.38333 9.34726 1.925V0.916667C9.34726 0.366667 8.9806 0 8.4306 0C7.8806 0 7.51393 0.366667 7.51393 0.916667V1.925C4.39727 2.38333 2.01393 5.04167 2.01393 8.25V10.6333C2.01393 11.9167 1.64727 13.1083 0.913932 14.2083L0.363932 15.0333C-0.736068 16.775 0.547266 19.25 2.74727 19.25H14.2056C16.4056 19.25 17.7806 16.775 16.4973 14.9417Z" fill="#666666"/>
</svg>