<svg width="38" height="38" viewBox="0 0 38 38" xmlns="http://www.w3.org/2000/svg"><title>shop-post-icon</title><path d="M31.45 19.177a7.942 7.942 0 0 1-6.925-2.11A7.942 7.942 0 0 1 19 19.3a7.942 7.942 0 0 1-5.525-2.233 7.942 7.942 0 0 1-6.925 2.11V33c0 .557.443 1 .997 1h5.203v-5.654A6.25 6.25 0 0 1 19 22.1a6.255 6.255 0 0 1 6.25 6.246V34h5.203a.995.995 0 0 0 .997-1V19.177zm4-1.992V33c0 2.762-2.232 5-4.997 5H7.547a4.994 4.994 0 0 1-4.997-5V17.185A7.929 7.929 0 0 1 0 11.35c0-1.17.58-2.585 1.629-4.483.202-.366.419-.743.65-1.13a57.844 57.844 0 0 1 2.064-3.214C5.331 1.063 7.344 0 9.11 0H28.89c1.779 0 3.813 1.083 4.762 2.518l.184.268a57.676 57.676 0 0 1 1.888 2.956c.23.387.448.765.65 1.13C37.42 8.768 38 10.18 38 11.35a7.929 7.929 0 0 1-2.55 5.835zM21.25 34v-5.654A2.255 2.255 0 0 0 19 26.1a2.251 2.251 0 0 0-2.25 2.246V34h4.5zM7.655 4.766a53.918 53.918 0 0 0-1.94 3.017c-.209.351-.405.691-.585 1.017C4.422 10.083 4 11.111 4 11.35a3.95 3.95 0 0 0 7.619 1.468c.67-1.674 3.041-1.674 3.712 0a3.952 3.952 0 0 0 7.338 0c.67-1.674 3.041-1.674 3.712 0A3.952 3.952 0 0 0 34 11.35c0-.239-.42-1.264-1.127-2.544a36.25 36.25 0 0 0-.585-1.018 53.75 53.75 0 0 0-1.943-3.021C30.112 4.415 29.333 4 28.891 4H9.11c-.441 0-1.216.41-1.454.766z" fill-rule="nonzero" fill="#C5C5C5"/></svg>