<svg width="48" height="31" viewBox="0 0 48 31" xmlns="http://www.w3.org/2000/svg"><title>Ñourier-icon</title><path d="M31.022 26h-5.044a5.5 5.5 0 0 1-10.956 0h-1.02A4.999 4.999 0 0 1 9 21H7a2 2 0 1 1 0-4h4a2 2 0 0 1 2 2v2.005c0 .55.447.995 1.001.995h2.256a5.489 5.489 0 0 1 4.243-2c1.708 0 3.234.778 4.243 2H31V5.001A1 1 0 0 0 29.999 4H14A.998.998 0 0 0 13 4.995V7a2 2 0 0 1-2 2H2a2 2 0 1 1 0-4l7-.005C9 2.235 11.24 0 14.001 0H30A5 5 0 0 1 35 5h2.994c1.69 0 3.73.938 4.826 2.217l3.397 3.963C47.247 12.383 48 14.412 48 16v5a5 5 0 0 1-4.999 5h-1.023a5.5 5.5 0 0 1-10.956 0zm9.72-4h2.26A1 1 0 0 0 44 21v-5c0-.632-.41-1.739-.82-2.217L39.783 9.82c-.336-.392-1.267-.82-1.789-.82H35v11.207c.477-.135.98-.207 1.5-.207 1.708 0 3.234.778 4.243 2zM20.5 27a1.5 1.5 0 1 0 0-3 1.5 1.5 0 0 0 0 3zm16 0a1.5 1.5 0 1 0 0-3 1.5 1.5 0 0 0 0 3zM5 15a2 2 0 1 1 0-4h4a2 2 0 1 1 0 4H5z" fill-rule="nonzero" fill="#C5C5C5"/></svg>